# xmcd
#
# Track frame offsets:
# 150
# 16558
# 32796
# 49207
# 67729
# 81120
# 97577
# 116255
#
# Disc length: 1732 seconds
#
# Revision: 0
# Processed by: cddbd v1.4PL0 Copyright (c) Steve Scherf et al.
# Submitted via: Audion 3.0.2 (http://www.panic.com/audion/)
#
DISCID=4b06c208
DTITLE=S.MARINO - mi agradecimiento
DYEAR=1900
DGENRE=
TTITLE0=yo no vuelvo atras
TTITLE1=un hogar feliz
TTITLE2=tu dia de salvacion
TTITLE3=quien me ha tocado
TTITLE4=seguro estoy
TTITLE5=mi agradecimiento
TTITLE6=te extrano mi dios
TTITLE7=siempre estare contigo
EXTD=
EXTT0=
EXTT1=
EXTT2=
EXTT3=
EXTT4=
EXTT5=
EXTT6=
EXTT7=
PLAYORDER=
